<?xml version="1.0" standalone="no"?>
<!DOCTYPE svg PUBLIC "-//W3C//DTD SVG 20010904//EN"
 "http://www.w3.org/TR/2001/REC-SVG-20010904/DTD/svg10.dtd">
<svg version="1.0" xmlns="http://www.w3.org/2000/svg"
 width="500.000000pt" height="500.000000pt" viewBox="0 0 500.000000 500.000000"
 preserveAspectRatio="xMidYMid meet">
<metadata>
Created by potrace 1.14, written by Peter Selinger 2001-2017
</metadata>
<g transform="translate(0.000000,500.000000) scale(0.100000,-0.100000)"
fill="#000000" stroke="none">
<path d="M870 4141 c-109 -26 -144 -38 -259 -95 -117 -57 -185 -114 -266 -221
-74 -99 -100 -155 -124 -274 -48 -236 -4 -503 106 -650 45 -60 145 -154 193
-182 60 -36 209 -85 295 -99 39 -6 142 -15 230 -20 88 -5 185 -14 215 -20 104
-23 212 -104 246 -186 41 -97 36 -320 -11 -489 -32 -117 -118 -288 -201 -397
-63 -83 -231 -244 -319 -304 -22 -16 -98 -67 -170 -115 -132 -89 -195 -140
-195 -159 0 -6 55 -10 148 -10 l148 0 74 46 c41 25 108 71 149 102 41 31 90
66 108 77 41 25 245 206 298 264 22 24 81 87 132 141 50 54 99 113 109 132 9
18 38 60 64 94 140 179 278 483 342 754 15 66 21 133 25 300 4 200 3 224 -20
341 -27 135 -98 327 -152 414 -17 28 -41 70 -53 95 -12 25 -72 97 -134 162
-96 100 -127 126 -208 171 -210 117 -324 147 -545 146 -105 -1 -173 -6 -225
-18z"/>
<path d="M3429 4145 c-75 -14 -209 -59 -272 -91 -73 -38 -175 -115 -224 -168
-65 -72 -147 -233 -174 -346 -18 -71 -21 -104 -16 -215 6 -150 25 -228 87
-350 79 -157 205 -263 375 -316 131 -41 170 -47 377 -59 101 -5 206 -16 233
-23 109 -30 185 -91 227 -182 21 -45 23 -64 23 -205 0 -127 -4 -171 -22 -245
-23 -91 -73 -226 -110 -300 -28 -55 -197 -264 -238 -295 -45 -34 -120 -96
-176 -145 -25 -22 -70 -53 -100 -69 -51 -28 -95 -58 -216 -149 -84 -62 -77
-67 100 -67 l154 0 119 81 c319 218 538 419 742 683 75 97 223 335 265 426 84
185 157 474 171 680 20 268 -68 628 -206 851 -86 138 -251 307 -363 371 -195
113 -293 140 -515 144 -113 2 -189 -1 -241 -11z"/>
</g>
</svg>
